{"title":"Manhattan 1979 DVDrip English Klam","uid":5838109,"size":1054512455,"categoryP":"video","categoryS":"movies","magnet":"?xt=urn:btih:78f6a605d8eca9db6477e5f2efcff7b330bf1cd7&amp;dn=Manhattan+1979+DVDrip+English+Klam&amp;tr=udp%3A%2F%2Ftracker.openbittorrent.com%3A80&amp;tr=udp%3A%2F%2Fopen.demonii.com%3A1337&amp;tr=udp%3A%2F%2Ftracker.coppersurfer.tk%3A6969&amp;tr=udp%3A%2F%2Fexodus.desync.com%3A6969","seeders":0,"leechers":0,"uploader":"Klambake","files":-1,"time":1284809528,"description":"\n\nWith: Woody Allen, Diane Keaton en Michael Murphy\n\nIsaac, 42, has divorced Jill. She is now living with another woman, Connie, and is writing a book in which she will reveal some very private points of their relationship. Isaac has a love affair with Tracy, 17, when he meets Mary, the mistress of his best friend Yale. Yale is already married to Emily.\n\nGeneral:\n\nComplete name                    : Manhattan\\Manhattan.avi\nFormat                           : AVI\nFormat/Info                      : Audio Video Interleave\nFile size                        : 1 005 MiB\nDuration                         : 1h 32mn\nOverall bit rate                 : 1 523 Kbps\n\nVideo:\n\nFormat                           : MPEG-4 Visual\nFormat profile                   : Simple@L1\nFormat settings, BVOP            : No\nFormat settings, QPel            : No\nFormat settings, GMC             : No warppoints\nFormat settings, Matrix          : Default (H.263)\nCodec ID                         : DX50\nCodec ID/Hint                    : DivX 5\nDuration                         : 1h 32mn\nBit rate                         : 1 320 Kbps\nWidth                            : 720 pixels\nHeight                           : 400 pixels\nDisplay aspect ratio             : 16:9\nFrame rate                       : 25.000 fps\nColor space                      : YUV\nChroma subsampling               : 4:2:0\nBit depth                        : 8 bits\nScan type                        : Progressive\nBits/(Pixel*Frame)               : 0.183\nStream size                      : 871 MiB (87%)\nWriting library                  : Lavc52.0.0\n\nAudio:\n\nFormat                           : AC-3\nFormat/Info                      : Audio Coding 3\nMode extension                   : CM (complete main)\nCodec ID                         : 2000\nDuration                         : 1h 32mn\nBit rate mode                    : Constant\nBit rate                         : 192 Kbps\nChannel(s)                       : 2 channels\nChannel positions                : Front: L R\nSampling rate                    : 48.0 KHz\nStream size                      : 127 MiB (13%)\nAlignment                        : Aligned on interleaves\nInterleave, duration             : 32 ms (0.80 video frame)\nInterleave, preload duration     : 96 ms","torrent":{"xt":"urn:btih:78f6a605d8eca9db6477e5f2efcff7b330bf1cd7","amp;dn":"Manhattan+1979+DVDrip+English+Klam","amp;tr":["udp%3A%2F%2Ftracker.openbittorrent.com%3A80","udp%3A%2F%2Fopen.demonii.com%3A1337","udp%3A%2F%2Ftracker.coppersurfer.tk%3A6969","udp%3A%2F%2Fexodus.desync.com%3A6969"],"infoHash":"78f6a605d8eca9db6477e5f2efcff7b330bf1cd7","infoHashBuffer":{"type":"Buffer","data":[120,246,166,5,216,236,169,219,100,119,229,242,239,207,247,179,48,191,28,215]},"announce":[],"urlList":[]}}